<svg width="18" height="18" viewBox="0 0 18 18" fill="none" xmlns="http://www.w3.org/2000/svg">
<path d="M15.648 7.82227L16.4285 8.60274C16.759 8.9332 16.759 9.46758 16.4285 9.79453L9.59763 16.6289C9.26716 16.9594 8.73279 16.9594 8.40584 16.6289L1.57146 9.79453C1.24099 9.46406 1.24099 8.92969 1.57146 8.60274L2.35193 7.82227C2.68591 7.48828 3.23083 7.49531 3.55779 7.83633L7.59373 12.0727V1.96875C7.59373 1.50117 7.9699 1.125 8.43748 1.125H9.56248C10.0301 1.125 10.4062 1.50117 10.4062 1.96875V12.0727L14.4422 7.83633C14.7691 7.4918 15.314 7.48477 15.648 7.82227Z" fill="#FFFFF6"/>
</svg>
