<svg width="25" height="25" viewBox="0 0 25 25" fill="none" xmlns="http://www.w3.org/2000/svg">
<path d="M3.49121 6.94824C3.52051 6.66016 3.4082 6.37207 3.19336 6.17676L0.991211 3.52051V3.125H7.83691L13.1299 14.7314L17.7832 3.125H24.3115V3.52051L22.4268 5.32715C22.2656 5.44922 22.1826 5.6543 22.2168 5.85449V19.1357C22.1826 19.3359 22.2656 19.541 22.4268 19.6631L24.2676 21.4697V21.8652H15.0049V21.4697L16.9141 19.6191C17.0996 19.4336 17.0996 19.375 17.0996 19.0918V8.35938L11.792 21.8311H11.0742L4.90234 8.35938V17.3877C4.84863 17.7686 4.97559 18.1494 5.24414 18.4229L7.72461 21.4307V21.8262H0.693359V21.4355L3.17383 18.4229C3.4375 18.1494 3.55957 17.7637 3.49121 17.3877V6.94824Z" fill="#1E293B"/>
</svg>
