<svg width="18" height="18" viewBox="0 0 18 18" fill="none" xmlns="http://www.w3.org/2000/svg">
<path d="M15.75 7.3125H10.6875V2.25C10.6875 1.62879 10.1837 1.125 9.5625 1.125H8.4375C7.81629 1.125 7.3125 1.62879 7.3125 2.25V7.3125H2.25C1.62879 7.3125 1.125 7.81629 1.125 8.4375V9.5625C1.125 10.1837 1.62879 10.6875 2.25 10.6875H7.3125V15.75C7.3125 16.3712 7.81629 16.875 8.4375 16.875H9.5625C10.1837 16.875 10.6875 16.3712 10.6875 15.75V10.6875H15.75C16.3712 10.6875 16.875 10.1837 16.875 9.5625V8.4375C16.875 7.81629 16.3712 7.3125 15.75 7.3125Z" fill="#01A299"/>
</svg>
